<svg xmlns="http://www.w3.org/2000/svg" viewBox="0 0 64 64" width="64" height="64" role="img" aria-label="Astral">
  <defs>
    <path id="astralPolarisApp" d="M0 -1 Q0.10 -0.34 0.245 -0.245 Q0.34 -0.10 1 0 Q0.34 0.10 0.245 0.245 Q0.10 0.34 0 1 Q-0.10 0.34 -0.245 0.245 Q-0.34 0.10 -1 0 Q-0.34 -0.10 -0.245 -0.245 Q-0.10 -0.34 0 -1 Z M0 -0.52 L0.135 -0.135 L0.52 0 L0.135 0.135 L0 0.52 L-0.135 0.135 L-0.52 0 L-0.135 -0.135 Z"/>
    <mask id="astralMaskApp">
      <rect width="64" height="64" fill="black"/>
      <circle cx="32" cy="32" r="18" fill="white"/>
      <use href="#astralPolarisApp" fill="black" transform="translate(32,32) scale(15.1)"/>
    </mask>

    <linearGradient id="astralSkyApp" gradientUnits="userSpaceOnUse" x1="32" y1="51" x2="32" y2="13">
      <stop offset="0" stop-color="#0b1f47"/>
      <stop offset="0.55" stop-color="#0a1236"/>
      <stop offset="1" stop-color="#120a2e"/>
    </linearGradient>
    <radialGradient id="astralCurtain1App" gradientUnits="userSpaceOnUse" cx="23" cy="42.6" r="15.5"
      gradientTransform="translate(23,42.6) scale(0.40,1.35) translate(-23,-42.6)">
      <stop offset="0" stop-color="#4dffb0" stop-opacity="0.95"/>
      <stop offset="0.42" stop-color="#00e676" stop-opacity="0.55"/>
      <stop offset="1" stop-color="#00e676" stop-opacity="0"/>
    </radialGradient>
    <radialGradient id="astralCurtain2App" gradientUnits="userSpaceOnUse" cx="32" cy="45.1" r="17.2"
      gradientTransform="translate(32,45.1) scale(0.36,1.42) translate(-32,-45.1)">
      <stop offset="0" stop-color="#7dffca" stop-opacity="1"/>
      <stop offset="0.38" stop-color="#00e676" stop-opacity="0.62"/>
      <stop offset="1" stop-color="#00e676" stop-opacity="0"/>
    </radialGradient>
    <radialGradient id="astralCurtain3App" gradientUnits="userSpaceOnUse" cx="41" cy="43.5" r="13.9"
      gradientTransform="translate(41,43.5) scale(0.38,1.28) translate(-41,-43.5)">
      <stop offset="0" stop-color="#3bffa8" stop-opacity="0.85"/>
      <stop offset="0.44" stop-color="#0fd6a0" stop-opacity="0.45"/>
      <stop offset="1" stop-color="#0fd6a0" stop-opacity="0"/>
    </radialGradient>
    <radialGradient id="astralTealApp" gradientUnits="userSpaceOnUse" cx="32" cy="33.6" r="13.9"
      gradientTransform="translate(32,33.6) scale(0.8,1.0) translate(-32,-33.6)">
      <stop offset="0" stop-color="#0fc9c4" stop-opacity="0.55"/>
      <stop offset="1" stop-color="#0fc9c4" stop-opacity="0"/>
    </radialGradient>
    <radialGradient id="astralCrown1App" gradientUnits="userSpaceOnUse" cx="27.1" cy="21.4" r="13.1"
      gradientTransform="translate(27.1,21.4) scale(0.62,1.0) translate(-27.1,-21.4)">
      <stop offset="0" stop-color="#b062ff" stop-opacity="0.85"/>
      <stop offset="1" stop-color="#8b2fff" stop-opacity="0"/>
    </radialGradient>
    <radialGradient id="astralCrown2App" gradientUnits="userSpaceOnUse" cx="39.4" cy="18.9" r="13.9"
      gradientTransform="translate(39.4,18.9) scale(0.7,0.95) translate(-39.4,-18.9)">
      <stop offset="0" stop-color="#8b2fff" stop-opacity="0.9"/>
      <stop offset="1" stop-color="#8b2fff" stop-opacity="0"/>
    </radialGradient>
    <linearGradient id="astralStreakApp" gradientUnits="userSpaceOnUse" x1="32" y1="46.7" x2="32" y2="17.3">
      <stop offset="0" stop-color="#c8ffe4" stop-opacity="0"/>
      <stop offset="0.35" stop-color="#c8ffe4" stop-opacity="0.75"/>
      <stop offset="0.75" stop-color="#d3b0ff" stop-opacity="0.35"/>
      <stop offset="1" stop-color="#d3b0ff" stop-opacity="0"/>
    </linearGradient>
  </defs>

  <rect width="64" height="64" rx="14" fill="#0e1020"/>
  <g mask="url(#astralMaskApp)">
    <rect width="64" height="64" fill="url(#astralSkyApp)"/>
    <rect width="64" height="64" fill="url(#astralCrown2App)"/>
    <rect width="64" height="64" fill="url(#astralCrown1App)"/>
    <rect width="64" height="64" fill="url(#astralCurtain1App)"/>
    <rect width="64" height="64" fill="url(#astralCurtain3App)"/>
    <rect width="64" height="64" fill="url(#astralCurtain2App)"/>
    <rect width="64" height="64" fill="url(#astralTealApp)"/>
    <rect x="27.3" y="17.3" width="0.9" height="29.4" fill="url(#astralStreakApp)"/>
    <rect x="36.4" y="17.3" width="0.75" height="29.4" fill="url(#astralStreakApp)"/>
  </g>
</svg>
